<?xml version="1.0" encoding="UTF-8"?>
<svg width="28px" height="28px" viewBox="0 0 28 28" version="1.1" xmlns="http://www.w3.org/2000/svg" xmlns:xlink="http://www.w3.org/1999/xlink">
  <title>Link</title>
  <g id="Iconography" stroke="none" stroke-width="1" fill="none" fill-rule="evenodd">
    <g id="Product" transform="translate(-1238.000000, -964.000000)">
      <g id="Link" transform="translate(1238.000000, 964.000000)">
        <polygon id="Frame" points="0 0 28 0 28 28 0 28"></polygon>
        <path d="M14.4763189,9.18989245 L16.6329159,6.84772578 C18.0850717,5.27061573 20.5366826,5.15782899 22.1275083,6.59494622 C23.6496795,7.97004238 23.7689073,10.3187416 22.3938111,11.8409127 C22.359501,11.8788925 22.3244095,11.9161591 22.2885591,11.9526886 L19.5740776,14.7185827 C17.7837867,16.5427821 14.864358,16.6033071 13,14.8548752 L13,14.8548752 L13,14.8548752" id="Frame-18" stroke="currentColor" stroke-width="1.5" stroke-linecap="round"></path>
        <path d="M4.4763189,15.1898924 L6.63291592,12.8477258 C8.08507168,11.2706157 10.5366826,11.157829 12.1275083,12.5949462 C13.6496795,13.9700424 13.7689073,16.3187416 12.3938111,17.8409127 C12.359501,17.8788925 12.3244095,17.9161591 12.2885591,17.9526886 L9.57407764,20.7185827 C7.7837867,22.5427821 4.864358,22.6033071 3,20.8548752 L3,20.8548752 L3,20.8548752" id="Frame-18-Copy-2" stroke="currentColor" stroke-width="1.5" stroke-linecap="round" transform="translate(9.000000, 17.000000) scale(-1, -1) translate(-9.000000, -17.000000) "></path>
      </g>
    </g>
  </g>
</svg>
