<?xml version="1.0" encoding="UTF-8"?>
<svg width="29px" height="30px" viewBox="0 0 29 30" version="1.1" xmlns="http://www.w3.org/2000/svg" xmlns:xlink="http://www.w3.org/1999/xlink">
    <title>Icons/Search</title>
    <g id="Help" stroke="none" stroke-width="1" fill="none" fill-rule="evenodd">
        <g id="/help" transform="translate(-447.000000, -294.000000)" fill="#140434" fill-rule="nonzero">
            <g id="header-+-hero" transform="translate(0.253344, 0.000000)">
                <g id="search-content" transform="translate(417.746656, 145.000000)">
                    <g id="search-bar" transform="translate(0.000000, 122.000000)">
                        <g id="Search" transform="translate(21.000000, 26.000000)">
                            <g id="Icons/Search" transform="translate(8.000000, 1.600001)">
                                <path d="M28.4487137,26.6088193 L19.499752,17.6598575 C21.0550109,15.6854735 21.8370565,13.3007966 21.8370565,10.9141124 C21.8370565,8.12195283 20.7695723,5.32818742 18.6390201,3.19803663 C16.5092708,1.06828731 13.7171112,1.13428314e-07 10.9257545,1.13428314e-07 C8.12998182,-0.000401233838 5.33139887,1.0642727 3.1980364,3.19803663 C1.06627977,5.3293918 -3.55271368e-15,8.12476306 -3.55271368e-15,10.9185285 C-3.55271368e-15,13.7118924 1.06627977,16.5072637 3.1980364,18.6390203 C5.32818719,20.7695726 8.12195261,21.8370567 10.9145136,21.8370567 C13.2702854,21.8370567 15.6236483,21.0726754 17.5835798,19.5567596 L17.6598573,19.4993507 L17.9910624,19.8305559 L26.6088191,28.4483125 C26.8428707,28.6823641 27.151594,28.8003936 27.45831,28.7999932 C27.7654275,28.8003936 28.0741509,28.6823641 28.3082025,28.447911 L28.4479108,28.3082027 C28.6823639,28.0741511 28.8003934,27.7650263 28.799996,27.4583103 C28.8007948,27.1515943 28.6827654,26.8428709 28.4487137,26.6088193 Z M17.2046008,17.2041996 C15.4694874,18.9397144 13.1932049,19.8084755 10.9185283,19.8080742 C8.64385159,19.8084755 6.36797055,18.9397144 4.63245569,17.2041996 C2.89694083,15.4690862 2.02858121,13.1928037 2.02858121,10.918127 C2.02858121,8.64345036 2.89694083,6.36756932 4.63245569,4.63205446 C6.36797055,2.8965396 8.64425305,2.02817998 10.9185283,2.02817998 C13.1932049,2.02817998 15.469086,2.8965396 17.2046008,4.63205446 C18.9401157,6.36756932 19.8088768,8.64385182 19.8084758,10.918127 C19.8092782,13.1928037 18.9405171,15.4690862 17.2046008,17.2041996 Z" id="Shape"></path>
                            </g>
                        </g>
                    </g>
                </g>
            </g>
        </g>
    </g>
</svg>