<svg width="24" height="24" viewBox="0 0 24 24" fill="none" xmlns="http://www.w3.org/2000/svg">
<g id="playbook-icon-glyph" fill="none" stroke-width="inherit">
<g clip-path="url(#clip0_3566_3302)">
<g mask="url(#mask0_3566_3302)">
<path d="M22.1799 5.56022L21.2699 5.77022C20.6199 5.92022 20.1099 6.43022 19.9499 7.08022L19.7299 7.99022C19.7099 8.09022 19.5699 8.09022 19.5499 7.99022L19.3399 7.08022C19.1899 6.43022 18.6799 5.92022 18.0299 5.76022L17.1199 5.54022C17.0199 5.52022 17.0199 5.38022 17.1199 5.36022L18.0299 5.15022C18.6799 5.00022 19.1899 4.49022 19.3499 3.84022L19.5699 2.93022C19.5899 2.83022 19.7299 2.83022 19.7499 2.93022L19.9599 3.84022C20.1099 4.49022 20.6199 5.00022 21.2699 5.16022L22.1799 5.38022C22.2799 5.40022 22.2799 5.54022 22.1799 5.56022Z" stroke="currentColor" stroke-miterlimit="10"/>
<path d="M13.42 4.23022H5.27002" stroke="currentColor" stroke-linecap="round" stroke-linejoin="round"/>
<path d="M1.47998 2.37012H3.20998C4.27998 2.37012 5.12998 3.29012 5.03998 4.36012L4.21998 14.2501C4.07998 15.8701 5.35998 17.2601 6.98998 17.2601H17.57C19 17.2601 20.25 16.0901 20.36 14.6701L20.57 11.7001" stroke="currentColor" stroke-linecap="round" stroke-linejoin="round"/>
<path d="M15.63 22.24C16.32 22.24 16.87 21.68 16.87 21C16.87 20.32 16.31 19.76 15.63 19.76C14.95 19.76 14.39 20.32 14.39 21C14.39 21.68 14.95 22.24 15.63 22.24Z" stroke="currentColor" stroke-linecap="round" stroke-linejoin="round"/>
<path d="M7.68995 22.24C8.37995 22.24 8.92995 21.68 8.92995 21C8.92995 20.32 8.36995 19.76 7.68995 19.76C7.00995 19.76 6.44995 20.32 6.44995 21C6.44995 21.68 7.00995 22.24 7.68995 22.24Z" stroke="currentColor" stroke-linecap="round" stroke-linejoin="round"/>
<path d="M8.42993 8.33008H15.6299" stroke="currentColor" stroke-linecap="round" stroke-linejoin="round"/>
</g>
</g>
</g>
</svg>
