<svg width="24" height="24" viewBox="0 0 24 24" fill="none" xmlns="http://www.w3.org/2000/svg">
<g clip-path="url(#clip0_3566_3316)">
<g mask="url(#mask0_3566_3316)">
<path d="M13.8999 2H15.7199C15.8599 2 15.9999 2.04 16.1099 2.13L18.0699 3.6C18.3499 3.8 18.4199 4.19 18.2299 4.48L17.4499 5.65C17.3299 5.82 17.1299 5.93 16.9099 5.93H15.9499L14.5799 9H9.41994L8.06995 5.93H7.10994C6.88994 5.93 6.68995 5.82 6.56995 5.65L5.78993 4.48C5.59993 4.19 5.65994 3.8 5.93994 3.59L7.89994 2.13C7.99994 2.04 8.13994 2 8.27994 2H10.0999L11.9999 4.23L13.8999 2Z" stroke="currentColor" stroke-width="1.5" stroke-miterlimit="10" stroke-linecap="round" stroke-linejoin="round"/>
<path d="M19 19.5197C19 20.0697 18.62 20.5997 17.98 20.8597C16.1 21.6197 14.05 21.9997 12 21.9997C10.54 21.9997 9.06998 21.8097 7.66998 21.4097C7.10998 21.2597 6.55999 21.0797 6.01999 20.8597C5.19999 20.5197 4.79999 19.7497 5.09999 19.0397L5.50998 18.0197L7.90999 12.1797L8.10998 12.2197C8.98998 12.3997 9.86998 12.5097 10.76 12.5697C11.48 12.6197 12.2 12.6197 12.92 12.5897C13.92 12.5397 14.91 12.4197 15.89 12.2197L16.09 12.1797L18.49 18.0197L18.9 19.0397C18.97 19.1997 19 19.3597 19 19.5197Z" stroke="currentColor" stroke-width="1.5" stroke-miterlimit="10" stroke-linecap="round" stroke-linejoin="round"/>
<path d="M10.7599 12.5703L7.66992 21.4103" stroke="currentColor" stroke-width="1.5" stroke-miterlimit="10" stroke-linecap="round" stroke-linejoin="round"/>
<path d="M16.09 12.18L15.89 12.22C14.91 12.42 13.92 12.54 12.92 12.59C12.2 12.62 11.48 12.62 10.76 12.57C9.87003 12.51 8.99003 12.4 8.11003 12.22L7.91003 12.18L9.22003 9H14.78L16.09 12.18Z" stroke="currentColor" stroke-width="1.5" stroke-miterlimit="10" stroke-linecap="round" stroke-linejoin="round"/>
<path d="M16 21.4098L12.92 12.5898" stroke="currentColor" stroke-width="1.5" stroke-miterlimit="10" stroke-linecap="round" stroke-linejoin="round"/>
</g>
</g>
</svg>
