<svg xmlns="http://www.w3.org/2000/svg" width="24" height="24" viewBox="0 0 24 24" fill="none">
  <path d="M21.3551 16.0652V20.2452" stroke="currentColor" stroke-width="1.5" stroke-linecap="round" stroke-linejoin="round"/>
  <path d="M18.715 20.2452L16.675 16.0652L14.635 20.2452" stroke="currentColor" stroke-width="1.5" stroke-linecap="round" stroke-linejoin="round"/>
  <path d="M15.155 19.2852H18.225" stroke="currentColor" stroke-width="1.5" stroke-linecap="round" stroke-linejoin="round"/>
  <path d="M20.0451 9.59509C20.0451 5.57509 18.4351 3.96509 14.4151 3.96509H9.58508C5.56508 3.96509 3.95508 5.57509 3.95508 9.59509V14.4251C3.95508 18.4451 5.56508 20.0551 9.58508 20.0551" stroke="currentColor" stroke-width="1.5" stroke-linecap="round" stroke-linejoin="round"/>
  <path d="M7.99512 3.96507V1.94507" stroke="currentColor" stroke-width="1.5" stroke-linecap="round" stroke-linejoin="round"/>
  <path d="M12.0051 3.96507V1.94507" stroke="currentColor" stroke-width="1.5" stroke-linecap="round" stroke-linejoin="round"/>
  <path d="M16.025 3.96507V1.94507" stroke="currentColor" stroke-width="1.5" stroke-linecap="round" stroke-linejoin="round"/>
  <path d="M20.045 7.98511H22.055" stroke="currentColor" stroke-width="1.5" stroke-linecap="round" stroke-linejoin="round"/>
  <path d="M7.99512 20.0452V22.0552" stroke="currentColor" stroke-width="1.5" stroke-linecap="round" stroke-linejoin="round"/>
  <path d="M1.94507 7.98511H3.95507" stroke="currentColor" stroke-width="1.5" stroke-linecap="round" stroke-linejoin="round"/>
  <path d="M1.94507 12.0051H3.95507" stroke="currentColor" stroke-width="1.5" stroke-linecap="round" stroke-linejoin="round"/>
  <path d="M1.94507 16.0251H3.95507" stroke="currentColor" stroke-width="1.5" stroke-linecap="round" stroke-linejoin="round"/>
  <path d="M12.4751 16.2451H10.0251C8.77514 16.2451 7.76514 15.2351 7.76514 13.9851V10.0251C7.76514 8.77514 8.77514 7.76514 10.0251 7.76514H13.9851C15.2351 7.76514 16.2451 8.77514 16.2451 10.0251V12.4551" stroke="currentColor" stroke-width="1.5" stroke-linecap="round" stroke-linejoin="round"/>
</svg>
