<svg viewBox="0 0 25.7142857 25.7142857" version="1.1" xmlns="http://www.w3.org/2000/svg" xmlns:xlink="http://www.w3.org/1999/xlink">
  <g id="Dashboard/Capture/New" stroke="none" stroke-width="currentStroke" fill="none" fill-rule="evenodd">
    <g id="/business/capture/form/design/" transform="translate(-435.1429, -795.1429)">
      <g id="Tip" transform="translate(416, 777)" fill="currentColor" fill-rule="nonzero">
        <g id="Icons/Tip" transform="translate(19.1429, 16.8571)">
          <path d="M12.8732343,7.33609592 C16.6948438,7.33609592 19.7925669,10.4340725 19.7925669,14.2554811 C19.7925669,17.1300042 18.0398929,19.5950836 15.5448177,20.640292 L15.5444185,21.7862893 L10.1698672,21.7862893 L10.1697558,20.62682 C7.69165208,19.5739984 5.95390177,17.117654 5.95390177,14.2554811 C5.95390177,10.4341874 9.05162489,7.33609592 12.8732343,7.33609592 Z M3.60443205,13.5474509 C3.95847315,13.5474509 4.21596542,13.8370651 4.21596542,14.158989 C4.21596542,14.5130328 3.92635342,14.770527 3.60443205,14.770527 L0.61153337,14.770527 C0.257492272,14.770527 3.55271368e-15,14.5130155 3.55271368e-15,14.158989 C3.55271368e-15,13.8049452 0.289611998,13.5474509 0.61153337,13.5474509 Z M25.1027523,13.5474509 C25.4567934,13.5474509 25.7142857,13.8049624 25.7142857,14.158989 C25.7142857,14.5130328 25.4246737,14.770527 25.1027523,14.770527 L22.1419217,14.770527 C21.7878806,14.770527 21.5303883,14.4809128 21.5303883,14.158989 C21.5303883,13.8049452 21.8200003,13.5474509 22.1419217,13.5474509 Z M4.18383995,4.89017373 C4.34482362,4.89017373 4.50556018,4.95437918 4.60209176,5.08323836 L6.72622341,7.20738616 C6.9516132,7.43255352 6.9516132,7.81870004 6.72622341,8.04409154 C6.50105776,8.26948304 6.11491418,8.26948304 5.88952439,8.04409154 L3.76539274,5.91994375 C3.54000295,5.69477638 3.54000295,5.30862986 3.76539274,5.08323836 C3.89424519,4.95460332 4.02287926,4.89017373 4.18383995,4.89017373 Z M21.5304458,4.89017373 C21.6914294,4.89017373 21.8200635,4.95437918 21.9486976,5.08323836 C22.1740874,5.30840573 22.1740874,5.69455225 21.9486976,5.91994375 L19.8245659,8.04409154 C19.5994003,8.26948304 19.2132567,8.26948304 18.9878669,8.04409154 C18.7624771,7.81892417 18.7624771,7.43277766 18.9878669,7.20738616 L21.1119986,5.08323836 C21.240851,4.95460332 21.3694851,4.89017373 21.5304458,4.89017373 Z M12.8732343,1.28571429 C13.1951729,1.28571429 13.4524411,1.54322576 13.4847677,1.8972523 L13.4847677,4.89017373 C13.4847677,5.24421751 13.1951557,5.50171174 12.8732343,5.50171174 C12.5191932,5.50171174 12.261701,5.21209754 12.261701,4.89017373 L12.261701,1.8972523 C12.261701,1.54320851 12.551313,1.28571429 12.8732343,1.28571429 Z M10.266416,24.2966353 C10.4918058,24.9081733 11.0065662,25.3586805 11.6501676,25.4873557 L11.6501676,25.8092796 C11.6501676,26.4528858 12.1972489,27 12.840879,27 C13.4845091,27 14.0315904,26.4529146 14.0315904,25.8092796 L14.0315904,25.4873557 C14.6751917,25.3908234 15.2223018,24.9081733 15.4153419,24.2966353 L10.266416,24.2966353 Z M10.1698672,22.52656 L15.5444185,22.52656 L15.5444185,23.7172805 L10.1698672,23.7172805 L10.1698672,22.52656 Z" id="noun-tips-2663052"></path>
        </g>
      </g>
    </g>
  </g>
</svg>
