
<svg viewBox="0 0 705 540" version="1.1" xmlns="http://www.w3.org/2000/svg" xmlns:xlink="http://www.w3.org/1999/xlink">
  <g id="Brand" stroke="none" stroke-width="1" fill="none" fill-rule="evenodd">
    <g id="favicon-hellotext" transform="translate(-174.000000, -255.000000)" fill="#FC5D00">
      <g id="hellotext/Icon" transform="translate(174.000000, 255.000000)">
        <path d="M704.219178,263.648277 C704.219178,354.43403 622.601382,420.344061 510.376911,420.344061 C398.79008,420.344061 317.809923,354.43403 317.809923,263.648277 C317.809923,172.862524 398.79008,106.952493 510.376911,106.952493 C622.601382,106.952493 704.219178,172.862524 704.219178,263.648277 Z M590.506883,264.923955 C590.506883,217.298642 557.774746,185.194079 509.526726,185.194079 C463.191623,185.194079 431.097125,216.44819 431.097125,262.159986 C431.097125,309.785299 463.829262,341.889863 512.077282,341.889863 C559.262571,341.889863 590.506883,310.635751 590.506883,264.923955 Z M171.365491,75.4857685 C179.017159,66.5560223 178.804613,53.1614031 170.302759,44.8694959 L132.044417,6.59915521 C122.904924,-2.54320396 108.02668,-2.11797795 99.3122798,7.44960723 C-33.1040933,156.703936 -33.1040933,382.924172 99.3122798,532.391114 C107.814134,542.171312 122.904924,542.596538 132.044417,533.241566 L170.302759,494.971225 C178.592067,486.679318 179.017159,473.284699 171.365491,464.354953 C74.6569037,353.370965 74.6569037,186.68237 171.365491,75.4857685 Z M290.60399,133.954345 L252.345648,95.6840039 C243.206155,86.5416447 227.902819,86.7542577 219.400965,96.9596819 C178.804613,145.435447 156.699793,206.030153 156.699793,270.026667 C156.699793,334.023181 178.804613,394.617887 219.400965,443.093652 C227.690272,453.086464 242.993609,453.51169 252.345648,444.36933 L290.60399,406.09899 C298.468205,398.232309 299.743483,385.262915 292.729454,376.545782 C268.711717,346.354736 255.533843,309.14746 255.533843,270.026667 C255.533843,230.905874 268.711717,193.698599 292.729454,163.507552 C299.743483,154.790419 298.468205,142.033639 290.60399,133.954345 Z" id="Symbol"></path>
      </g>
    </g>
  </g>
</svg>
