<svg width="60" height="60" viewBox="0 0 60 60" fill="none" xmlns="http://www.w3.org/2000/svg">
<rect width="60" height="60" rx="8" fill="#FFF472" style="fill:#FFF472;fill:color(display-p3 1.0000 0.9569 0.4471);fill-opacity:1;"/>
<path d="M40.9985 21.1268C40.8885 21.1084 40.7602 21.1084 40.6502 21.1268C38.1202 21.0351 36.1035 18.9634 36.1035 16.3968C36.1035 13.7751 38.2118 11.6667 40.8335 11.6667C43.4552 11.6667 45.5635 13.7934 45.5635 16.3968C45.5452 18.9634 43.5285 21.0351 40.9985 21.1268Z" stroke="#140434" style="stroke:#140434;stroke:color(display-p3 0.0779 0.0158 0.2058);stroke-opacity:1;" stroke-width="2" stroke-linecap="round" stroke-linejoin="round"/>
<path d="M39.1097 34.4735C41.6214 34.8951 44.3897 34.4551 46.333 33.1535C48.918 31.4301 48.918 28.6068 46.333 26.8835C44.3714 25.5818 41.5664 25.1418 39.0547 25.5818" stroke="#140434" style="stroke:#140434;stroke:color(display-p3 0.0779 0.0158 0.2058);stroke-opacity:1;" stroke-width="2" stroke-linecap="round" stroke-linejoin="round"/>
<path d="M18.94 21.1268C19.05 21.1084 19.1783 21.1084 19.2883 21.1268C21.8183 21.0351 23.835 18.9634 23.835 16.3968C23.835 13.7751 21.7267 11.6667 19.105 11.6667C16.4833 11.6667 14.375 13.7934 14.375 16.3968C14.3933 18.9634 16.41 21.0351 18.94 21.1268Z" stroke="#140434" style="stroke:#140434;stroke:color(display-p3 0.0779 0.0158 0.2058);stroke-opacity:1;" stroke-width="2" stroke-linecap="round" stroke-linejoin="round"/>
<path d="M20.83 34.4735C18.3184 34.8951 15.5501 34.4551 13.6067 33.1535C11.0217 31.4301 11.0217 28.6068 13.6067 26.8835C15.5684 25.5818 18.3734 25.1418 20.885 25.5818" stroke="#140434" style="stroke:#140434;stroke:color(display-p3 0.0779 0.0158 0.2058);stroke-opacity:1;" stroke-width="2" stroke-linecap="round" stroke-linejoin="round"/>
<path d="M29.9985 34.8217C29.8885 34.8034 29.7602 34.8034 29.6502 34.8217C27.1202 34.73 25.1035 32.6584 25.1035 30.0917C25.1035 27.47 27.2118 25.3617 29.8335 25.3617C32.4552 25.3617 34.5635 27.4884 34.5635 30.0917C34.5452 32.6584 32.5285 34.7484 29.9985 34.8217Z" stroke="#140434" style="stroke:#140434;stroke:color(display-p3 0.0779 0.0158 0.2058);stroke-opacity:1;" stroke-width="2" stroke-linecap="round" stroke-linejoin="round"/>
<path d="M24.6656 40.5968C22.0806 42.3201 22.0806 45.1434 24.6656 46.8668C27.5989 48.8284 32.4022 48.8284 35.3356 46.8668C37.9206 45.1434 37.9206 42.3201 35.3356 40.5968C32.4206 38.6534 27.5989 38.6534 24.6656 40.5968Z" stroke="#140434" style="stroke:#140434;stroke:color(display-p3 0.0779 0.0158 0.2058);stroke-opacity:1;" stroke-width="2" stroke-linecap="round" stroke-linejoin="round"/>
</svg>
