<svg width="60" height="60" viewBox="0 0 60 60" fill="none" xmlns="http://www.w3.org/2000/svg">
<rect width="60" height="60" rx="8" fill="#A5FFA3" style="fill:#A5FFA3;fill:color(display-p3 0.6471 1.0000 0.6392);fill-opacity:1;"/>
<path d="M11.6641 24.5001V19.9167C11.6641 15.3517 15.3491 11.6667 19.9141 11.6667H24.4974" stroke="#140434" style="stroke:#140434;stroke:color(display-p3 0.0779 0.0158 0.2058);stroke-opacity:1;" stroke-width="2" stroke-linecap="round" stroke-linejoin="round"/>
<path d="M35.498 11.6667H40.0814C44.6464 11.6667 48.3314 15.3517 48.3314 19.9167V24.5001" stroke="#140434" style="stroke:#140434;stroke:color(display-p3 0.0779 0.0158 0.2058);stroke-opacity:1;" stroke-width="2" stroke-linecap="round" stroke-linejoin="round"/>
<path d="M48.332 37.3335V40.0835C48.332 44.6485 44.647 48.3335 40.082 48.3335H37.332" stroke="#140434" style="stroke:#140434;stroke:color(display-p3 0.0779 0.0158 0.2058);stroke-opacity:1;" stroke-width="2" stroke-linecap="round" stroke-linejoin="round"/>
<path d="M24.4974 48.3335H19.9141C15.3491 48.3335 11.6641 44.6485 11.6641 40.0835V35.5001" stroke="#140434" style="stroke:#140434;stroke:color(display-p3 0.0779 0.0158 0.2058);stroke-opacity:1;" stroke-width="2" stroke-linecap="round" stroke-linejoin="round"/>
<path d="M27.2487 20.8335V24.5002C27.2487 26.3335 26.332 27.2502 24.4987 27.2502H20.832C18.9987 27.2502 18.082 26.3335 18.082 24.5002V20.8335C18.082 19.0002 18.9987 18.0835 20.832 18.0835H24.4987C26.332 18.0835 27.2487 19.0002 27.2487 20.8335Z" stroke="#140434" style="stroke:#140434;stroke:color(display-p3 0.0779 0.0158 0.2058);stroke-opacity:1;" stroke-width="2" stroke-linecap="round" stroke-linejoin="round"/>
<path d="M41.9147 20.8335V24.5002C41.9147 26.3335 40.998 27.2502 39.1647 27.2502H35.498C33.6647 27.2502 32.748 26.3335 32.748 24.5002V20.8335C32.748 19.0002 33.6647 18.0835 35.498 18.0835H39.1647C40.998 18.0835 41.9147 19.0002 41.9147 20.8335Z" stroke="#140434" style="stroke:#140434;stroke:color(display-p3 0.0779 0.0158 0.2058);stroke-opacity:1;" stroke-width="2" stroke-linecap="round" stroke-linejoin="round"/>
<path d="M27.2487 35.5001V39.1668C27.2487 41.0001 26.332 41.9168 24.4987 41.9168H20.832C18.9987 41.9168 18.082 41.0001 18.082 39.1668V35.5001C18.082 33.6668 18.9987 32.7501 20.832 32.7501H24.4987C26.332 32.7501 27.2487 33.6668 27.2487 35.5001Z" stroke="#140434" style="stroke:#140434;stroke:color(display-p3 0.0779 0.0158 0.2058);stroke-opacity:1;" stroke-width="2" stroke-linecap="round" stroke-linejoin="round"/>
<path d="M41.9147 35.5001V39.1668C41.9147 41.0001 40.998 41.9168 39.1647 41.9168H35.498C33.6647 41.9168 32.748 41.0001 32.748 39.1668V35.5001C32.748 33.6668 33.6647 32.7501 35.498 32.7501H39.1647C40.998 32.7501 41.9147 33.6668 41.9147 35.5001Z" stroke="#140434" style="stroke:#140434;stroke:color(display-p3 0.0779 0.0158 0.2058);stroke-opacity:1;" stroke-width="2" stroke-linecap="round" stroke-linejoin="round"/>
</svg>
