<svg width="60" height="60" viewBox="0 0 60 60" fill="none" xmlns="http://www.w3.org/2000/svg">
<rect width="60" height="60" rx="8" fill="#FEBE99" style="fill:#FEBE99;fill:color(display-p3 0.9961 0.7451 0.6000);fill-opacity:1;"/>
<path d="M23.5807 42.7782H22.6641C15.3307 42.7782 11.6641 40.9449 11.6641 31.7782V22.6116C11.6641 15.2782 15.3307 11.6116 22.6641 11.6116H37.3307C44.6641 11.6116 48.3307 15.2782 48.3307 22.6116V31.7782C48.3307 39.1116 44.6641 42.7782 37.3307 42.7782H36.4141C35.8457 42.7782 35.2958 43.0533 34.9474 43.5116L32.1974 47.1783C30.9874 48.7916 29.0074 48.7916 27.7974 47.1783L25.0474 43.5116C24.754 43.1083 24.0941 42.7782 23.5807 42.7782Z" stroke="#140434" style="stroke:#140434;stroke:color(display-p3 0.0779 0.0158 0.2058);stroke-opacity:1;" stroke-width="2" stroke-miterlimit="10" stroke-linecap="round" stroke-linejoin="round"/>
<path d="M22.6647 23.9498L18.998 27.6165L22.6647 31.2832" stroke="#140434" style="stroke:#140434;stroke:color(display-p3 0.0779 0.0158 0.2058);stroke-opacity:1;" stroke-width="2" stroke-miterlimit="10" stroke-linecap="round" stroke-linejoin="round"/>
<path d="M37.332 23.95L40.9987 27.6166L37.332 31.2833" stroke="#140434" style="stroke:#140434;stroke:color(display-p3 0.0779 0.0158 0.2058);stroke-opacity:1;" stroke-width="2" stroke-miterlimit="10" stroke-linecap="round" stroke-linejoin="round"/>
<path d="M31.8307 23.345L28.1641 31.8884" stroke="#140434" style="stroke:#140434;stroke:color(display-p3 0.0779 0.0158 0.2058);stroke-opacity:1;" stroke-width="2" stroke-miterlimit="10" stroke-linecap="round" stroke-linejoin="round"/>
</svg>
