<svg width="60" height="60" viewBox="0 0 60 60" fill="none" xmlns="http://www.w3.org/2000/svg">
<rect width="60" height="60" rx="8" fill="#FFF472" style="fill:#FFF472;fill:color(display-p3 1.0000 0.9569 0.4471);fill-opacity:1;"/>
<path d="M28.1641 11.6665H24.4974C15.3307 11.6665 11.6641 15.3332 11.6641 24.4998V35.4998C11.6641 44.6665 15.3307 48.3332 24.4974 48.3332H35.4974C44.6641 48.3332 48.3307 44.6665 48.3307 35.4998V31.8332" stroke="#140434" style="stroke:#140434;stroke:color(display-p3 0.0779 0.0158 0.2058);stroke-opacity:1;" stroke-width="2" stroke-linecap="round" stroke-linejoin="round"/>
<path d="M37.4055 13.5366L22.9588 27.9833C22.4088 28.5333 21.8588 29.615 21.7488 30.4033L20.9605 35.9216C20.6671 37.92 22.0788 39.3133 24.0771 39.0383L29.5955 38.25C30.3655 38.14 31.4471 37.59 32.0155 37.04L46.4621 22.5933C48.9555 20.1 50.1288 17.2033 46.4621 13.5366C42.7955 9.86997 39.8988 11.0433 37.4055 13.5366Z" stroke="#140434" style="stroke:#140434;stroke:color(display-p3 0.0779 0.0158 0.2058);stroke-opacity:1;" stroke-width="2" stroke-miterlimit="10" stroke-linecap="round" stroke-linejoin="round"/>
<path d="M35.334 15.6084C36.5623 19.9901 39.9907 23.4184 44.3907 24.6651" stroke="#140434" style="stroke:#140434;stroke:color(display-p3 0.0779 0.0158 0.2058);stroke-opacity:1;" stroke-width="2" stroke-miterlimit="10" stroke-linecap="round" stroke-linejoin="round"/>
</svg>
