<svg width="60" height="60" viewBox="0 0 60 60" fill="none" xmlns="http://www.w3.org/2000/svg">
<rect width="60" height="60" rx="8" fill="#A5FFA3" style="fill:#A5FFA3;fill:color(display-p3 0.6471 1.0000 0.6392);fill-opacity:1;"/>
<path d="M29.9971 25.0865C32.1788 25.0865 33.9571 23.3082 33.9571 21.1265C33.9571 18.9448 32.1788 17.1665 29.9971 17.1665C27.8154 17.1665 26.0371 18.9448 26.0371 21.1265C26.0371 23.3082 27.8154 25.0865 29.9971 25.0865Z" stroke="#140434" style="stroke:#140434;stroke:color(display-p3 0.0779 0.0158 0.2058);stroke-opacity:1;" stroke-width="2" stroke-linecap="round" stroke-linejoin="round"/>
<path d="M20.4483 42.8333C22.6299 42.8333 24.4083 41.055 24.4083 38.8733C24.4083 36.6917 22.6299 34.9133 20.4483 34.9133C18.2666 34.9133 16.4883 36.6917 16.4883 38.8733C16.4883 41.055 18.2483 42.8333 20.4483 42.8333Z" stroke="#140434" style="stroke:#140434;stroke:color(display-p3 0.0779 0.0158 0.2058);stroke-opacity:1;" stroke-width="2" stroke-linecap="round" stroke-linejoin="round"/>
<path d="M39.5518 42.8333C41.7335 42.8333 43.5118 41.055 43.5118 38.8733C43.5118 36.6917 41.7335 34.9133 39.5518 34.9133C37.3701 34.9133 35.5918 36.6917 35.5918 38.8733C35.5918 41.055 37.3701 42.8333 39.5518 42.8333Z" stroke="#140434" style="stroke:#140434;stroke:color(display-p3 0.0779 0.0158 0.2058);stroke-opacity:1;" stroke-width="2" stroke-linecap="round" stroke-linejoin="round"/>
</svg>
