<svg width="60" height="60" viewBox="0 0 60 60" fill="none" xmlns="http://www.w3.org/2000/svg">
<rect width="60" height="60" rx="8" fill="#D9C5FF" style="fill:#D9C5FF;fill:color(display-p3 0.8504 0.7714 1.0000);fill-opacity:1;"/>
<path d="M17.1641 24.5001V37.3335" stroke="#140434" style="stroke:#140434;stroke:color(display-p3 0.0779 0.0158 0.2058);stroke-opacity:1;" stroke-width="2" stroke-linecap="round" stroke-linejoin="round"/>
<path d="M17.6224 23.5834C20.9131 23.5834 23.5807 20.9158 23.5807 17.6251C23.5807 14.3344 20.9131 11.6667 17.6224 11.6667C14.3317 11.6667 11.6641 14.3344 11.6641 17.6251C11.6641 20.9158 14.3317 23.5834 17.6224 23.5834Z" stroke="#140434" style="stroke:#140434;stroke:color(display-p3 0.0779 0.0158 0.2058);stroke-opacity:1;" stroke-width="2" stroke-linecap="round" stroke-linejoin="round"/>
<path d="M17.1641 48.3335C20.2016 48.3335 22.6641 45.8711 22.6641 42.8335C22.6641 39.7959 20.2016 37.3335 17.1641 37.3335C14.1265 37.3335 11.6641 39.7959 11.6641 42.8335C11.6641 45.8711 14.1265 48.3335 17.1641 48.3335Z" stroke="#140434" style="stroke:#140434;stroke:color(display-p3 0.0779 0.0158 0.2058);stroke-opacity:1;" stroke-width="2" stroke-linecap="round" stroke-linejoin="round"/>
<path d="M42.832 48.3335C45.8696 48.3335 48.332 45.8711 48.332 42.8335C48.332 39.7959 45.8696 37.3335 42.832 37.3335C39.7945 37.3335 37.332 39.7959 37.332 42.8335C37.332 45.8711 39.7945 48.3335 42.832 48.3335Z" stroke="#140434" style="stroke:#140434;stroke:color(display-p3 0.0779 0.0158 0.2058);stroke-opacity:1;" stroke-width="2" stroke-linecap="round" stroke-linejoin="round"/>
<path d="M17.4043 24.5001C18.2293 27.7085 21.1626 30.0918 24.6276 30.0735L30.916 30.0551C35.7193 30.0368 39.8076 33.1168 41.311 37.4068" stroke="#140434" style="stroke:#140434;stroke:color(display-p3 0.0779 0.0158 0.2058);stroke-opacity:1;" stroke-width="2" stroke-linecap="round" stroke-linejoin="round"/>
</svg>
