<svg width="60" height="60" viewBox="0 0 60 60" fill="none" xmlns="http://www.w3.org/2000/svg">
<rect width="60" height="60" rx="8" fill="#A5FFA3" style="fill:#A5FFA3;fill:color(display-p3 0.6471 1.0000 0.6392);fill-opacity:1;"/>
<path d="M48.2762 41.6051C48.2762 42.2651 48.1295 42.9434 47.8179 43.6034C47.5062 44.2634 47.1029 44.8867 46.5712 45.4734C45.6729 46.4634 44.6829 47.1784 43.5645 47.6368C42.4645 48.0951 41.2729 48.3334 39.9896 48.3334C38.1196 48.3334 36.1212 47.8934 34.0129 46.9951C31.9045 46.0967 29.7962 44.8868 27.7062 43.3651C25.5979 41.8251 23.5995 40.1201 21.6929 38.2317C19.8046 36.3251 18.0996 34.3267 16.5779 32.2367C15.0746 30.1467 13.8646 28.0567 12.9846 25.9851C12.1046 23.8951 11.6646 21.8967 11.6646 19.9901C11.6646 18.7434 11.8846 17.5517 12.3246 16.4517C12.7646 15.3334 13.4612 14.3067 14.4329 13.3901C15.6062 12.2351 16.8896 11.6667 18.2462 11.6667C18.7596 11.6667 19.2729 11.7767 19.7312 11.9967C20.2079 12.2167 20.6296 12.5467 20.9596 13.0234L25.2129 19.0184C25.5429 19.4767 25.7812 19.8984 25.9462 20.3017C26.1112 20.6867 26.2029 21.0717 26.2029 21.4201C26.2029 21.8601 26.0746 22.3001 25.8179 22.7217C25.5796 23.1434 25.2312 23.5834 24.7912 24.0234L23.3979 25.4717C23.1962 25.6734 23.1045 25.9117 23.1045 26.2051C23.1045 26.3517 23.1229 26.4801 23.1596 26.6267C23.2146 26.7734 23.2696 26.8834 23.3062 26.9934C23.6362 27.5984 24.2045 28.3867 25.0112 29.3401C25.8362 30.2934 26.7162 31.2651 27.6695 32.2367C28.6595 33.2084 29.6129 34.1067 30.5845 34.9317C31.5379 35.7384 32.3262 36.2884 32.9495 36.6184C33.0412 36.6551 33.1512 36.7101 33.2795 36.7651C33.4262 36.8201 33.5729 36.8384 33.7379 36.8384C34.0495 36.8384 34.2879 36.7284 34.4895 36.5267L35.8829 35.1517C36.3412 34.6934 36.7812 34.3451 37.2029 34.1251C37.6246 33.8684 38.0462 33.7401 38.5045 33.7401C38.8529 33.7401 39.2195 33.8134 39.6229 33.9784C40.0262 34.1434 40.4479 34.3817 40.9062 34.6934L46.9745 39.0017C47.4512 39.3317 47.7812 39.7167 47.9829 40.1751C48.1662 40.6334 48.2762 41.0917 48.2762 41.6051Z" stroke="#140434" style="stroke:#140434;stroke:color(display-p3 0.0779 0.0158 0.2058);stroke-opacity:1;" stroke-width="2" stroke-miterlimit="10"/>
</svg>
