<svg width="60" height="60" viewBox="0 0 60 60" fill="none" xmlns="http://www.w3.org/2000/svg">
<rect width="60" height="60" rx="8" fill="#FFF472" style="fill:#FFF472;fill:color(display-p3 1.0000 0.9569 0.4471);fill-opacity:1;"/>
<path d="M24.7927 27.9284C24.6094 27.9101 24.3894 27.9101 24.1877 27.9284C19.8244 27.7817 16.3594 24.2067 16.3594 19.8067C16.3594 15.3151 19.9894 11.6667 24.4994 11.6667C28.991 11.6667 32.6394 15.3151 32.6394 19.8067C32.621 24.2067 29.156 27.7817 24.7927 27.9284Z" stroke="#140434" style="stroke:#140434;stroke:color(display-p3 0.0779 0.0158 0.2058);stroke-opacity:1;" stroke-width="2" stroke-linecap="round" stroke-linejoin="round"/>
<path d="M38.0821 15.3335C41.6387 15.3335 44.4987 18.2118 44.4987 21.7502C44.4987 25.2152 41.7488 28.0385 38.3204 28.1668C38.1738 28.1485 38.0087 28.1485 37.8438 28.1668" stroke="#140434" style="stroke:#140434;stroke:color(display-p3 0.0779 0.0158 0.2058);stroke-opacity:1;" stroke-width="2" stroke-linecap="round" stroke-linejoin="round"/>
<path d="M15.6263 34.6935C11.1897 37.6635 11.1897 42.5035 15.6263 45.4552C20.668 48.8285 28.9363 48.8285 33.978 45.4552C38.4147 42.4852 38.4147 37.6452 33.978 34.6935C28.9547 31.3385 20.6863 31.3385 15.6263 34.6935Z" stroke="#140434" style="stroke:#140434;stroke:color(display-p3 0.0779 0.0158 0.2058);stroke-opacity:1;" stroke-width="2" stroke-linecap="round" stroke-linejoin="round"/>
<path d="M41.6211 44.6667C42.9411 44.3917 44.1878 43.8601 45.2144 43.0717C48.0744 40.9267 48.0744 37.3884 45.2144 35.2434C44.2061 34.4734 42.9778 33.9601 41.6761 33.6667" stroke="#140434" style="stroke:#140434;stroke:color(display-p3 0.0779 0.0158 0.2058);stroke-opacity:1;" stroke-width="2" stroke-linecap="round" stroke-linejoin="round"/>
</svg>
