<svg width="24px" height="24px" viewBox="0 0 24 24" version="1.1" xmlns="http://www.w3.org/2000/svg" xmlns:xlink="http://www.w3.org/1999/xlink">
  <g id="Dashboard/Inbox" stroke="none" stroke-width="1" fill="none" fill-rule="evenodd">
    <g id="/business/inbox/share/modal-copy-2" transform="translate(-484.000000, -843.000000)" fill="currentColor" fill-rule="nonzero">
      <path d="M507.166316,854.178061 L505.827368,854.178061 C505.423117,849.398302 501.608421,845.579553 496.833684,845.174917 L496.833684,843.834561 C496.833684,843.379436 496.454809,843 496,843 C495.545353,843 495.166316,843.379274 495.166316,843.834561 L495.166316,845.149672 C490.391579,845.554349 486.576842,849.373057 486.172632,854.152817 L484.833684,854.152817 C484.379038,854.152817 484,854.53209 484,854.987378 C484,855.442503 484.378875,855.821939 484.833684,855.821939 L486.172632,855.821939 C486.576883,860.601698 490.391579,864.420447 495.166316,864.825083 L495.166316,866.165439 C495.166316,866.620564 495.545191,867 496,867 C496.454647,867 496.833684,866.620726 496.833684,866.165439 L496.833684,864.825083 C501.608421,864.420407 505.423158,860.601698 505.827368,855.821939 L507.166316,855.821939 C507.620962,855.821939 508,855.442665 508,854.987378 C508,854.532072 507.621125,854.178016 507.166316,854.178016 L507.166316,854.178061 Z M496,850.991555 C493.776797,850.991555 491.983203,852.787216 491.983203,855.012577 C491.983203,857.238119 493.776977,859.033599 496,859.033599 C498.223203,859.033599 500.016797,857.237938 500.016797,855.012577 C500.016797,852.787036 498.223203,850.991555 496,850.991555 L496,850.991555 Z M496,857.364567 C494.711624,857.364567 493.650617,856.302399 493.650617,855.012713 C493.650617,853.723027 494.711669,852.660858 496,852.660858 C497.288331,852.660858 498.349383,853.723027 498.349383,855.012713 C498.349383,856.302399 497.288331,857.364567 496,857.364567 Z M496.833684,863.181205 L496.833684,861.941963 C496.833684,861.486839 496.454809,861.107402 496,861.107402 C495.545353,861.107402 495.166316,861.486676 495.166316,861.941963 L495.166316,863.181205 C491.326271,862.776529 488.244211,859.716557 487.84,855.847183 L489.07794,855.847183 C489.532586,855.847183 489.911624,855.46791 489.911624,855.012622 C489.911624,854.557497 489.532749,854.178061 489.07794,854.178061 L487.84,854.178061 C488.244251,850.333977 491.301008,847.248675 495.166316,846.844039 L495.166316,848.083281 C495.166316,848.538406 495.545191,848.917842 496,848.917842 C496.454647,848.917842 496.833684,848.538569 496.833684,848.083281 L496.833684,846.844039 C500.673729,847.248715 503.755789,850.308687 504.16,854.178061 L502.92206,854.178061 C502.467414,854.178061 502.088376,854.557335 502.088376,855.012622 C502.088376,855.467747 502.467251,855.847183 502.92206,855.847183 L504.16,855.847183 C503.755925,859.716512 500.698992,862.77657 496.833684,863.181205 Z" id="Shape"></path>
    </g>
  </g>
</svg>
